<svg width="16" height="16" viewBox="0 0 16 16" fill="none" xmlns="http://www.w3.org/2000/svg"><path fill-rule="evenodd" clip-rule="evenodd" d="M8 3a1 1 0 011 .999V4l.003 2.618 2.49-.806h.003a1 1 0 01.618 1.902h-.002l-2.49.812 1.537 2.12.002.002a1 1 0 01-1.618 1.176l-.002-.002L8 9.707l-1.542 2.116-.001.002a1 1 0 01-1.618-1.176l.001-.002 1.537-2.12-2.49-.812h-.002a1 1 0 01.618-1.902h.003l2.49.806L7 4.001V4a1 1 0 011-1zM6.998 7.67h-.003l-2.8-.906 2.798.913h.002l.007.002.002.001.051.017.91.296.027.01-.017.023-.561.774-.032.044-.001.002-.004.005-.001.002-1.727 2.383L7.38 8.857l.002-.002.004-.005v-.002l.033-.043.563-.774L8 8.008l.017.023.563.774.032.043.001.002.004.005.001.002 1.733 2.38-1.727-2.384-.001-.002-.004-.005-.002-.002-.031-.044-.562-.774-.017-.024.028-.008.91-.297.05-.017h.003l.006-.003h.002l2.798-.913-2.8.906h-.002l-.007.003h-.002l-.05.017-.91.295h-.001l-.027.009v-.03l-.002-.956v-.065L8 4l-.004 2.943v1.051l-.028-.01-.91-.294-.052-.016-.002-.001-.006-.002z" fill="#F54953"/></svg>