<svg width="24" height="24" viewBox="0 0 24 24" fill="none" xmlns="http://www.w3.org/2000/svg"><rect width="24" height="24" rx="12" fill="#ED4C5C"/><path d="M8 10.56l3.2 2.24L10 9.12l3.2-2.32H9.24L8 3.2 6.8 6.8h-4L6 9.12 4.8 12.8 8 10.56zm5.32 2.76l-.92.2.88.36v.92l.6-.68.88.32-.52-.76.56-.72-.92.2-.56-.76v.92zm1.36-2.72l-.68.6.92-.08.4.88.16-.92.92-.08-.8-.48.2-.92-.68.6-.8-.48.36.88zm.24-3.12l.28.92.28-.88h.92l-.72-.56.28-.92-.76.56-.72-.6.28.92-.76.52.92.04zm-1.6-3.2v.92l.56-.76.92.2-.56-.72.52-.76-.88.36-.6-.72v.92l-.88.36.92.2z" fill="#FFE62E"/></svg>