<svg width="16" height="16" viewBox="0 0 16 16" fill="none" xmlns="http://www.w3.org/2000/svg"><path fill-rule="evenodd" clip-rule="evenodd" d="M.08 1.854c.232 1.869 1.117 6.431 4.377 9.69 3.259 3.26 7.817 4.145 9.685 4.378.488.06.92-.276 1.017-.76l.683-3.413a1 1 0 00-.532-1.09l-2.125-1.066a2 2 0 00-2.194.265l-1.29 1.098c-.278.236-.66.302-.981.129a9.464 9.464 0 01-2.168-1.636 9.5 9.5 0 01-1.638-2.17c-.173-.32-.108-.705.129-.982l1.098-1.29a2 2 0 00.267-2.192L5.342.685A1 1 0 004.25.152L.838.836c-.483.097-.82.53-.759 1.018zM12 5.999a2 2 0 100-4 2 2 0 000 4z" fill="#fff"/></svg>