<svg width="24" height="24" viewBox="0 0 24 24" fill="none" xmlns="http://www.w3.org/2000/svg"><path fill-rule="evenodd" clip-rule="evenodd" d="M0 9.428C0 5.314 3.894 2 8.674 2c4.323 0 7.921 2.706 8.539 6.268h-.483c-4.35 0-7.895 3.038-7.895 6.766 0 .635.107 1.242.295 1.822h-.483c-.967 0-1.934-.165-2.82-.414-.08-.027-.161-.027-.242-.027a.887.887 0 00-.456.138l-1.907 1.132a.374.374 0 01-.16.055.302.302 0 01-.296-.304c0-.065.017-.113.037-.172l.017-.049c.026-.027.268-.939.402-1.49 0-.028.007-.063.014-.097a.542.542 0 00.013-.097.632.632 0 00-.241-.497C1.155 13.68 0 11.665 0 9.428zm10.356-2.374c0 .645.494 1.155 1.12 1.155.624 0 1.119-.537 1.119-1.155 0-.645-.495-1.155-1.12-1.155-.625 0-1.12.51-1.12 1.155zm-5.738 0c0 .645.495 1.155 1.12 1.155.624 0 1.12-.537 1.12-1.155 0-.645-.496-1.155-1.12-1.155-.625 0-1.12.51-1.12 1.155z" fill="#fff"/><path fill-rule="evenodd" clip-rule="evenodd" d="M24 15.056c0 1.854-.965 3.541-2.492 4.676a.395.395 0 00-.187.414c0 .056 0 .111.027.166.066.292.174.69.246.958.044.163.075.277.075.287 0 .046.008.083.016.117.006.027.01.052.01.077a.255.255 0 01-.07.176.24.24 0 01-.17.073c-.04 0-.064-.015-.096-.034l-.038-.021-1.58-.941a.852.852 0 00-.376-.11c-.08 0-.16 0-.214.027a8.245 8.245 0 01-2.358.332c-3.992 0-7.207-2.766-7.207-6.197 0-3.43 3.215-6.197 7.207-6.197S24 11.626 24 15.056zm-5.808-2.01c0 .563.436 1.012.98 1.012s.98-.478.98-1.011c0-.562-.436-1.01-.98-1.01s-.98.448-.98 1.01zm-4.828 0c0 .563.436 1.012.98 1.012s.98-.478.98-1.011c0-.562-.436-1.01-.98-1.01s-.98.448-.98 1.01z" fill="#fff"/></svg>