<svg width="24" height="24" viewBox="0 0 24 24" fill="none" xmlns="http://www.w3.org/2000/svg"><path fill-rule="evenodd" clip-rule="evenodd" d="M7.878 2.06C8.945 2.012 9.286 2 12.002 2L12 2.002c2.716 0 3.058.012 4.122.06 1.065.048 1.793.217 2.428.464a4.91 4.91 0 011.772 1.155 4.91 4.91 0 011.153 1.77c.247.636.416 1.36.465 2.426.048 1.067.06 1.407.06 4.123s-.012 3.059-.06 4.123c-.049 1.064-.218 1.792-.465 2.427a5.11 5.11 0 01-2.925 2.925c-.635.247-1.36.416-2.426.465-1.067.048-1.407.06-4.123.06s-3.06-.012-4.123-.06c-1.065-.049-1.793-.218-2.428-.465a4.904 4.904 0 01-1.772-1.154 4.909 4.909 0 01-1.153-1.771c-.247-.635-.416-1.36-.465-2.426C2.012 15.057 2 14.717 2 12s.012-3.058.06-4.122c.049-1.064.218-1.792.465-2.427A4.91 4.91 0 013.678 3.68 4.91 4.91 0 015.45 2.526c.635-.247 1.362-.417 2.428-.466zm9.465 5.803a1.2 1.2 0 100-2.4 1.2 1.2 0 000 2.4zm-8.191-.131a5.135 5.135 0 115.706 8.54 5.135 5.135 0 01-5.706-8.54zm1 7.041a3.334 3.334 0 103.705-5.544 3.334 3.334 0 00-3.705 5.544z" fill="#171717"/></svg>