<svg width="24" height="24" viewBox="0 0 24 24" fill="none" xmlns="http://www.w3.org/2000/svg"><path fill-rule="evenodd" clip-rule="evenodd" d="M20.597 4.478c.947.263 1.691 1.037 1.945 2.02C23 8.28 23 12 23 12s0 3.72-.46 5.501c-.253.984-.998 1.758-1.945 2.021C18.88 20 12 20 12 20s-6.88 0-8.595-.478c-.947-.263-1.691-1.037-1.945-2.02C1 15.72 1 12 1 12s0-3.72.46-5.501c.254-.984.998-1.758 1.945-2.021C5.12 4 12 4 12 4s6.88 0 8.597.478zm-5.083 7.52l-5.717 3.428V8.57l5.717 3.428z" fill="#171717"/></svg>