<svg width="24" height="24" viewBox="0 0 24 24" fill="none" xmlns="http://www.w3.org/2000/svg"><path d="M19.642 7.531A8.338 8.338 0 0022 6.901a7.89 7.89 0 01-2.052 2.086c.013.17.013.34.013.524C19.961 14.85 15.831 21 8.29 21c-2.319 0-4.478-.669-6.29-1.81.32.04.653.053.986.053a8.27 8.27 0 005.09-1.731c-1.786-.04-3.305-1.207-3.824-2.807.253.052.506.066.773.066.373 0 .732-.053 1.079-.145-1.879-.367-3.291-1.993-3.291-3.947v-.053c.56.302 1.186.486 1.865.499a3.995 3.995 0 01-1.266-5.39 11.742 11.742 0 008.448 4.222 4.22 4.22 0 01-.106-.918C11.754 6.81 13.591 5 15.857 5c1.173 0 2.239.485 2.998 1.272a8.056 8.056 0 002.599-.983 4.062 4.062 0 01-1.812 2.242z" fill="#171717"/></svg>