<svg width="24" height="24" viewBox="0 0 24 24" fill="none" xmlns="http://www.w3.org/2000/svg"><path fill-rule="evenodd" clip-rule="evenodd" d="M22 12.004C21.998 17.515 17.512 22 12 22h-.004a9.992 9.992 0 01-5.09-1.394l-.365-.216-3.785.992 1.011-3.689-.238-.378A9.974 9.974 0 012 11.995C2 6.484 6.488 2 12.004 2A10 10 0 0122 12.004zM8.989 7.007c.176.007.369.016.553.458.126.302.339.866.508 1.315.123.33.224.597.25.653.061.133.103.287.02.465l-.034.077a1.516 1.516 0 01-.211.365l-.128.166a4.5 4.5 0 01-.241.299c-.123.133-.252.275-.108.54.144.266.637 1.135 1.369 1.838a6.313 6.313 0 001.815 1.237c.068.031.123.057.163.079.246.133.39.11.534-.067.143-.176.612-.776.776-1.041.164-.266.329-.224.554-.133.225.091 1.435.732 1.681.865l.135.071c.171.09.286.15.337.239.064.11.066.64-.141 1.26-.208.622-1.213 1.215-1.663 1.262l-.127.015c-.417.055-.943.123-2.825-.677-2.312-.984-3.838-3.423-4.15-3.922a2.973 2.973 0 00-.052-.082l-.003-.005C7.866 12.09 7 10.841 7 9.546c0-1.223.557-1.864.813-2.159l.048-.055a.914.914 0 01.296-.24.85.85 0 01.36-.092c.164 0 .33 0 .472.007z" fill="#fff"/></svg>